# xmcd CD database file
#
# Track frame offsets:
#	150
#	20160
#	42885
#	68102
#	94967
#	117122
#	138627
#	154480
#	172252
#	192375
#
# Disc length: 2854 seconds
#
# Revision: 0
# Processed by: cddbd v1.5.2PL0 Copyright (c) Steve Scherf et al.
# Submitted via: CDex 1.70beta2
#
DISCID=960b240a
DTITLE=Various Artist - Jazz in the Cafes～The Slow Groves～
DYEAR=2002
DGENRE=Jazz
TTITLE0=Stages
TTITLE1=It's Time For Love
TTITLE2=(I'm Still) Believing In Dreams
TTITLE3=Pipe Dream
TTITLE4=Europe
TTITLE5=Diane
TTITLE6=Ride On The Donky
TTITLE7=The Racer
TTITLE8=Ain't Nothing But "G"
TTITLE9=If I Could Reach Rainbow
EXTD=YEAR: 2002
EXTT0=
EXTT1=
EXTT2=
EXTT3=
EXTT4=
EXTT5=
EXTT6=
EXTT7=
EXTT8=
EXTT9=
PLAYORDER=
